<svg width="41" height="40" viewBox="0 0 41 40" fill="none" xmlns="http://www.w3.org/2000/svg">
<path d="M20.4609 40C18.2478 40 16.146 39.6663 14.1436 38.993C12.1413 38.3197 10.3087 37.3712 8.64595 36.1475C6.97733 34.9239 5.53705 33.4778 4.3134 31.815C3.08974 30.1522 2.14127 28.3138 1.46796 26.3173C0.794662 24.315 0.460938 22.2131 0.460938 20C0.460938 17.7869 0.794662 15.685 1.46796 13.6827C2.14127 11.6803 3.08974 9.84777 4.3134 8.18501C5.53705 6.51639 6.98319 5.07611 8.64595 3.85246C10.3146 2.62881 12.1471 1.68033 14.1436 1.00703C16.146 0.333724 18.2478 0 20.4609 0C22.6741 0 24.7759 0.333724 26.7783 1.00703C28.7806 1.68033 30.6132 2.62881 32.2759 3.85246C33.9445 5.07611 35.3848 6.52225 36.6085 8.18501C37.8321 9.85363 38.7806 11.6862 39.4539 13.6827C40.1272 15.685 40.4609 17.7869 40.4609 20C40.4609 22.2131 40.1272 24.315 39.4539 26.3173C38.7806 28.3197 37.8321 30.1522 36.6085 31.815C35.3848 33.4778 33.9387 34.9239 32.2759 36.1475C30.6073 37.3712 28.7748 38.3197 26.7783 38.993C24.7818 39.6663 22.6741 40 20.4609 40ZM20.4609 37.5878C22.4106 37.5878 24.2607 37.2892 26.0171 36.6979C27.7736 36.1066 29.3837 35.2693 30.8532 34.192C32.3169 33.1148 33.5933 31.8443 34.6705 30.3747C35.7478 28.911 36.5792 27.2951 37.1705 25.5386C37.7619 23.7822 38.0546 21.9321 38.0546 19.9941C38.0546 18.0562 37.7619 16.1944 37.1705 14.4379C36.5792 12.6815 35.7478 11.0714 34.6705 9.60187C33.5933 8.13232 32.3228 6.86183 30.8532 5.78454C29.3895 4.70726 27.7736 3.87588 26.0171 3.28454C24.2607 2.69321 22.4106 2.40047 20.4609 2.40047C18.5113 2.40047 16.6612 2.69321 14.9047 3.28454C13.1483 3.87588 11.5382 4.70726 10.0687 5.78454C8.59911 6.86183 7.32862 8.13232 6.25134 9.60187C5.17405 11.0714 4.34267 12.6815 3.75134 14.4379C3.16 16.1944 2.86726 18.0445 2.86726 19.9941C2.86726 21.9438 3.16 23.7822 3.75134 25.5386C4.34267 27.2951 5.17405 28.9052 6.25134 30.3747C7.32862 31.8384 8.59911 33.1148 10.0687 34.192C11.5382 35.2693 13.1483 36.1066 14.9047 36.6979C16.6612 37.2892 18.5113 37.5878 20.4609 37.5878ZM21.8544 29.315L20.256 27.7342L26.8485 21.1417H9.77593V18.8525H26.8485L20.256 12.2834L21.8544 10.685L31.1694 20L21.8544 29.315Z" fill="black"/>
</svg>
