<svg width="40" height="40" viewBox="0 0 40 40" fill="none" xmlns="http://www.w3.org/2000/svg">
<path d="M20 40C17.7869 40 15.685 39.6663 13.6827 38.993C11.6803 38.3197 9.84777 37.3712 8.18501 36.1475C6.51639 34.9239 5.07611 33.4778 3.85246 31.815C2.62881 30.1522 1.68033 28.3138 1.00703 26.3173C0.333724 24.315 0 22.2131 0 20C0 17.7869 0.333724 15.685 1.00703 13.6827C1.68033 11.6803 2.62881 9.84777 3.85246 8.18501C5.07611 6.51639 6.52225 5.07611 8.18501 3.85246C9.85363 2.62881 11.6862 1.68033 13.6827 1.00703C15.685 0.333724 17.7869 0 20 0C22.2131 0 24.315 0.333724 26.3173 1.00703C28.3197 1.68033 30.1522 2.62881 31.815 3.85246C33.4836 5.07611 34.9239 6.52225 36.1475 8.18501C37.3712 9.85363 38.3197 11.6862 38.993 13.6827C39.6663 15.685 40 17.7869 40 20C40 22.2131 39.6663 24.315 38.993 26.3173C38.3197 28.3197 37.3712 30.1522 36.1475 31.815C34.9239 33.4778 33.4778 34.9239 31.815 36.1475C30.1464 37.3712 28.3138 38.3197 26.3173 38.993C24.3208 39.6663 22.2131 40 20 40ZM20 37.5878C21.9496 37.5878 23.7998 37.2892 25.5562 36.6979C27.3126 36.1066 28.9227 35.2693 30.3923 34.192C31.856 33.1148 33.1323 31.8443 34.2096 30.3747C35.2869 28.911 36.1183 27.2951 36.7096 25.5386C37.3009 23.7822 37.5937 21.9321 37.5937 19.9941C37.5937 18.0562 37.3009 16.1944 36.7096 14.4379C36.1183 12.6815 35.2869 11.0714 34.2096 9.60187C33.1323 8.13232 31.8618 6.86183 30.3923 5.78454C28.9286 4.70726 27.3126 3.87588 25.5562 3.28454C23.7998 2.69321 21.9496 2.40047 20 2.40047C18.0504 2.40047 16.2002 2.69321 14.4438 3.28454C12.6874 3.87588 11.0773 4.70726 9.60773 5.78454C8.13817 6.86183 6.86768 8.13232 5.7904 9.60187C4.71311 11.0714 3.88173 12.6815 3.2904 14.4379C2.69906 16.1944 2.40632 18.0445 2.40632 19.9941C2.40632 21.9438 2.69906 23.7822 3.2904 25.5386C3.88173 27.2951 4.71311 28.9052 5.7904 30.3747C6.86768 31.8384 8.13817 33.1148 9.60773 34.192C11.0773 35.2693 12.6874 36.1066 14.4438 36.6979C16.2002 37.2892 18.0504 37.5878 20 37.5878ZM18.63 29.315L9.31499 20L18.63 10.685L20.2283 12.2658L13.6358 18.8583H30.7026V21.1475H13.6358L20.2283 27.7166L18.63 29.315Z" fill="black"/>
</svg>
