<svg width="45" height="32" viewBox="0 0 45 32" fill="none" xmlns="http://www.w3.org/2000/svg">
<path d="M32.706 3.51941C34.1527 4.17751 35.5376 4.97332 36.8041 5.9365L36.4791 5.68831C37.6288 6.56725 38.6733 7.58228 39.5532 8.73298L39.305 8.40792C40.0505 9.38823 40.6703 10.4592 41.1375 11.5983C41.0878 11.4766 41.0379 11.3546 40.9882 11.2329C41.4299 12.3184 41.73 13.4569 41.883 14.6176L41.8327 14.2316C41.9891 15.439 41.9865 16.6623 41.835 17.8687L41.8834 17.4829C41.7546 18.4915 41.5236 19.4858 41.196 20.4476C41.103 20.721 41.0019 20.9911 40.8939 21.259L41.0414 20.8942C40.6446 21.8722 40.1499 22.8092 39.5614 23.6849C39.3955 23.9323 39.2215 24.1745 39.0412 24.4115L39.2878 24.0876C38.694 24.8649 38.0251 25.5846 37.2849 26.2239C37.0779 26.4025 36.8658 26.5748 36.6489 26.7405L36.9728 26.4938C36.1018 27.156 35.1498 27.7085 34.1349 28.1206L34.4997 27.9731C33.5999 28.3358 32.6569 28.5849 31.6927 28.7066C31.8212 28.6904 31.9497 28.6741 32.0785 28.6582C31.1451 28.774 30.1999 28.7687 29.2662 28.6488L29.6522 28.6991C28.5897 28.5596 27.5514 28.2721 26.5584 27.867L26.9238 28.0163C25.6211 27.481 24.4078 26.7501 23.2882 25.8971L23.6132 26.1453C22.2834 25.1278 21.0874 23.9432 20.0041 22.6683C19.6579 22.2608 19.3231 21.8438 18.9988 21.4192L19.247 21.7442C17.9511 20.0453 16.7925 18.2231 15.9781 16.2429L16.1274 16.6084C15.682 15.5168 15.3452 14.3795 15.1919 13.21L15.2422 13.596C15.1435 12.8204 15.1278 12.0359 15.2229 11.2602L15.1744 11.646C15.2545 11.0119 15.4086 10.3901 15.6462 9.79712L15.4987 10.1619C15.7207 9.61459 16.0118 9.09845 16.3683 8.62793L16.1216 8.95183C16.4784 8.48521 16.8955 8.06991 17.3612 7.71222L17.0373 7.95888C17.5388 7.57749 18.0904 7.26786 18.6744 7.03145L18.3096 7.17898C18.9222 6.93391 19.5644 6.77078 20.2192 6.68684L19.8334 6.73529C20.5367 6.64756 21.2489 6.65225 21.9522 6.74301L21.5662 6.69273C22.3072 6.79111 23.0325 6.98486 23.7257 7.26613C23.604 7.21648 23.482 7.16652 23.3603 7.11687C24.1099 7.42386 24.8146 7.83127 25.459 8.32313C25.3504 8.2404 25.2425 8.15767 25.1339 8.07494C25.8287 8.60935 26.4454 9.23689 26.9777 9.93256L26.7295 9.60749C27.3461 10.4192 27.8419 11.3138 28.2294 12.255L28.0801 11.8896C28.5815 13.1194 28.8943 14.416 29.0671 15.73L29.0169 15.344C29.1944 16.7245 29.2242 18.1224 29.0547 19.5036L29.1031 19.1178C28.9622 20.2297 28.6912 21.3202 28.2713 22.3585L28.4188 21.9938C28.04 22.9188 27.5469 23.7902 26.9434 24.5867L27.1901 24.2628C26.5749 25.0669 25.8551 25.7824 25.0511 26.397L25.375 26.1503C24.5034 26.8108 23.545 27.3461 22.531 27.7567C22.6525 27.7076 22.7743 27.6582 22.8958 27.6092C21.7919 28.0511 20.6337 28.3428 19.4538 28.4944L19.8396 28.4459C18.5258 28.6102 17.1957 28.6007 15.8811 28.4333L16.2671 28.4836C14.8191 28.2944 13.4014 27.9145 12.0477 27.3638L12.4132 27.513C10.9426 26.9091 9.55216 26.1078 8.28628 25.1452C8.39484 25.228 8.50279 25.3107 8.61135 25.3934C7.50799 24.5489 6.50787 23.5752 5.66306 22.471L5.91125 22.796C5.21527 21.8797 4.63289 20.8829 4.19423 19.8196L4.34348 20.1851C3.95686 19.2363 3.68873 18.2451 3.5548 17.2301L3.60507 17.6161C3.48425 16.6706 3.48109 15.7156 3.59775 14.7704L3.54929 15.1562C3.67313 14.1881 3.92193 13.2424 4.28581 12.3384L4.13828 12.7032C4.54019 11.7165 5.07469 10.7922 5.71713 9.94402L5.47047 10.2679C6.22336 9.28211 7.11317 8.41221 8.09717 7.65812L7.77327 7.90478C8.4445 7.39467 9.155 6.94002 9.89541 6.53633C10.5919 6.1566 10.896 5.15258 10.4621 4.46407C10.0159 3.75596 9.13358 3.48087 8.38715 3.88756C5.05304 5.70526 2.33272 8.56135 1.10629 12.1949C-0.00116157 15.4771 0.401114 19.1015 1.94742 22.1829C2.76397 23.8102 3.92723 25.2942 5.26238 26.529C6.74293 27.8985 8.46197 29.0524 10.297 29.8875C13.7385 31.4533 17.5728 32.0174 21.2862 31.2661C22.9407 30.9314 24.5739 30.3047 26.004 29.4087C27.5491 28.4404 28.8477 27.1913 29.8853 25.6944C32.1562 22.4183 32.5539 18.2492 31.9247 14.3918C31.4757 11.639 30.324 8.94264 28.3745 6.91019C26.8208 5.29044 24.7056 4.10432 22.4771 3.77367C21.3106 3.60054 20.1866 3.59789 19.0244 3.80795C18.0426 3.98533 17.0673 4.34934 16.2089 4.8548C14.3101 5.97335 12.9283 7.82335 12.3973 9.96553C11.7133 12.7259 12.3841 15.5786 13.5035 18.1334C14.2032 19.7304 15.1251 21.2246 16.1512 22.6321C17.1142 23.9537 18.1467 25.2275 19.3032 26.3858C20.3036 27.3875 21.3984 28.3003 22.5667 29.0998C23.5987 29.8063 24.6966 30.3679 25.855 30.8333C27.7399 31.5908 29.8405 31.9371 31.8624 31.7261C33.8843 31.515 35.8288 30.8764 37.5501 29.7905C39.296 28.6891 40.7431 27.2498 41.9432 25.5791C43.0808 23.9949 43.9187 22.1698 44.4272 20.2867C44.9437 18.3745 45.1291 16.3311 44.8891 14.3584C44.6208 12.1574 43.9445 10.0368 42.7821 8.13379C41.4643 5.97641 39.6544 4.20556 37.582 2.77512C36.5168 2.03966 35.3793 1.4145 34.2024 0.878951C33.8323 0.71072 33.4694 0.622874 33.0654 0.727571C32.7002 0.822426 32.3042 1.10383 32.1304 1.44536C31.9554 1.78929 31.8664 2.20115 31.9844 2.58159C32.0993 2.9524 32.3378 3.35179 32.706 3.51941Z" fill="black"/>
</svg>
